<svg viewBox="0 0 12 12" width="60px" height="60px" xmlns="http://www.w3.org/2000/svg"><path fill-rule="evenodd" d="M 0,0 3,0 3,4 4,4 4,5 5,5 5,6 6,6 6,5 7,5 7,4 8,4 8,0 11,0 11,4 10,4 10,11 7,11 7,10 4,10 4,11 1,11 1,4 0,4z" fill="#13C9BA"/><path fill-rule="evenodd" d="M 4,1 7,1 7,4 4,4z" fill="#13C9BA"/><path fill-rule="evenodd" d="M 1,1 2,1 2,3 1,3z" fill="#ffffff"/><path fill-rule="evenodd" d="M 9,1 10,1 10,3 9,3z" fill="#ffffff"/><path fill-rule="evenodd" d="M 5,2 6,2 6,3 5,3z" fill="#ffffff"/><path fill-rule="evenodd" d="M 2,5 3,5 3,6 2,6z" fill="#ffffff"/><path fill-rule="evenodd" d="M 8,5 9,5 9,6 8,6z" fill="#ffffff"/><path fill-rule="evenodd" d="M 3,6 4,6 4,7 3,7z" fill="#ffffff"/><path fill-rule="evenodd" d="M 7,6 8,6 8,7 7,7z" fill="#ffffff"/><path fill-rule="evenodd" d="M 2,7 3,7 3,8 2,8z" fill="#ffffff"/><path fill-rule="evenodd" d="M 5,7 6,7 6,9 5,9z" fill="#ffffff"/><path fill-rule="evenodd" d="M 8,7 9,7 9,8 8,8z" fill="#ffffff"/><path fill-rule="evenodd" d="M 2,9 3,9 3,10 2,10z" fill="#ffffff"/><path fill-rule="evenodd" d="M 8,9 9,9 9,10 8,10z" fill="#ffffff"/></svg>